<?xml version="1.0" encoding="utf-8"?>
<!-- Generator: Adobe Illustrator 24.3.0, SVG Export Plug-In . SVG Version: 6.00 Build 0)  -->
<svg version="1.1" id="Layer_1" xmlns="http://www.w3.org/2000/svg" xmlns:xlink="http://www.w3.org/1999/xlink" x="0px" y="0px"
	 viewBox="0 0 603.2 199.6" style="enable-background:new 0 0 603.2 199.6;" xml:space="preserve">
<style type="text/css">
	.st0{fill:#FFFFFF;}
</style>
<path class="st0" d="M128.6,44.7c-1.9,7.8-3,17.2-3,30.8v40.9h-1.3L77.8,56v28.4c0,13.6,1.2,23.1,3,30.8h-7.9c1.8-7.8,3-17.3,3-30.8
	V53.5L69.2,45v-0.3h18.3l36.1,47.8v-17c0-13.6-1.2-23.1-3-30.8L128.6,44.7z"/>
<path class="st0" d="M145,92.5c-4.2,11.1-4.6,17.2-4.1,22.8h-9.4c5.3-9.7,8.5-16.8,14.8-31.1l17.9-41.5h0.4l31.3,72.6h-16.8
	l-9.8-22.8H145z M145.7,90.7h23l-11.6-26.8l-9,21C147.2,86.9,146.4,88.9,145.7,90.7"/>
<path class="st0" d="M198.9,89.6V44.7h15.4v45.1c0,15.8,6.7,23.3,18,23.3c11.1,0,18.4-7.2,18.4-22.8V75.5c0-13.6-1.2-23.1-3-30.8
	h7.9c-1.8,7.8-3,17.2-3,30.8v14.2c0,17.2-7.9,26.7-26.3,26.7C207.6,116.4,198.9,106.5,198.9,89.6"/>
<path class="st0" d="M262.6,111.6l2.2-8.3c4.4,6.9,14.2,11.7,22.6,11.7c9.1,0,14.1-5.6,14.1-12.4c0-8.7-8.7-12.4-15.5-15.4l-4.9-2
	c-6.8-3-17.8-8.2-17.8-21c0-11.7,9.5-20.5,24.2-20.5c7.1,0.1,14,1.8,20.3,4.9l-1.9,7.4c-4.3-5-11-10.8-19.7-10.8
	c-8.7,0-13.1,5.4-13.1,11.6c0,8,7.6,11.5,14.7,14.6l4.8,2c7.9,3.4,18.5,8.5,18.5,21.5c0,11.4-8.8,21.5-25.2,21.5
	C276.7,116.4,265.5,113.1,262.6,111.6"/>
<rect x="320.2" y="44.7" class="st0" width="15.4" height="70.6"/>
<path class="st0" d="M345.6,80.8c0-23,15.3-37.2,36.2-37.2c10,0.1,19.5,4.2,26.5,11.4l-6.6,6c-3.9-8.2-11-15.8-20.2-15.8
	c-13,0-19.2,14.5-19.2,32.2c0,22.3,9.9,33.3,23.7,33.3c8.9,0.1,17.2-4.3,22-11.7l1.2,0.7c-6.2,10.6-17.6,17.1-29.9,16.9
	C359.6,116.4,345.6,101.9,345.6,80.8"/>
<path class="st0" d="M420.6,92.5c-4.2,11.1-4.6,17.2-4.1,22.8h-9.4c5.3-9.7,8.5-16.8,14.8-31.1l17.8-41.5h0.4l31.3,72.6h-16.8
	l-9.8-22.8H420.6z M421.3,90.7h23l-11.6-26.8l-9,21C422.9,86.9,422,88.9,421.3,90.7"/>
<path class="st0" d="M483.1,92.5c-4.2,11.1-4.7,17.2-4.1,22.8h-9.4c5.3-9.7,8.5-16.8,14.8-31.1l17.8-41.5h0.4l31.3,72.6h-16.8
	l-9.8-22.8H483.1z M483.8,90.7h23l-11.6-26.8l-9,21C485.3,86.9,484.5,88.9,483.8,90.7 M492.1,38.1l-7.7-7.6l7.7-7.6l7.6,7.7
	L492.1,38.1z M513,38.1l-7.7-7.6l7.7-7.6l7.7,7.7L513,38.1z"/>
<polygon class="st0" points="147.9,152.5 147.9,176 144.6,176 144.6,164.1 133.1,164.1 133.1,176 129.8,176 129.8,152.5 
	133.1,152.5 133.1,163.5 144.6,163.5 144.6,152.5 "/>
<path class="st0" d="M174.2,173.8l-0.6,2.2h-14v-23.5h13.6l0.4,2h-0.1c-2.8-1-5.8-1.4-8.8-1.4h-1.8v10.4h1.5c3.5,0,5.8-0.2,6.8-0.6
	h0.1v2h0c-2.2-0.6-4.5-0.9-6.8-0.8h-1.5v11.4h1.9c3.2,0,6.3-0.5,9.3-1.6L174.2,173.8z"/>
<path class="st0" d="M196,173.6l-0.6,2.4h-11.2v-23.5h3.3v22.9h0.6C190.8,175.4,193.5,174.8,196,173.6L196,173.6z"/>
<path class="st0" d="M216.6,168.3h-9.2c-1,2.5-1.7,5.1-1.9,7.7h-2.2c1.6-3.2,2.8-6.2,4.4-10.3l5.6-13.7h0.1l9.8,24h-3.6L216.6,168.3
	z M216.4,167.7l-4.4-10.8l-3.6,9l-0.7,1.8L216.4,167.7z"/>
<path class="st0" d="M253.4,164c0,7.6-5,12-13,12h-7.7v-23.5h8.2C248.4,152.5,253.4,156.5,253.4,164 M249.8,164.2
	c0-6.6-3.6-11.1-9.1-11.1h-4.6v22.2c1.6,0.3,3.3,0.4,4.9,0.3C246.6,175.5,249.8,171.4,249.8,164.2"/>
<path class="st0" d="M263,164.5c0-7.6,5.4-12.4,12.4-12.4c6.7,0,12,4.5,12,11.9s-5.4,12.4-12.4,12.4
	C268.3,176.4,263,171.9,263,164.5 M283.8,164.4c0-7-3.6-11.8-8.6-11.8s-8.6,4.6-8.6,11.5s3.6,11.8,8.7,11.8S283.8,171.3,283.8,164.4
	"/>
<path class="st0" d="M296.5,174.7l0.6-2c1.9,2,4.5,3.2,7.2,3.2c3.1,0,5.3-1.9,5.3-4.6c0-3.1-2.8-4.5-5.2-5.6l-1.6-0.7
	c-2.5-1.2-5.9-2.9-5.9-6.7c0-3.5,2.9-6.2,7.4-6.2c2.3,0,4.6,0.6,6.6,1.7l-0.5,1.8c-1.7-1.8-4-2.9-6.4-3c-3,0-4.7,1.9-4.7,4.1
	c0,2.8,2.4,4,5,5.2l1.6,0.8c2.9,1.4,6,2.9,6,6.9s-3.3,6.8-7.9,6.8C301.4,176.4,298.8,175.8,296.5,174.7"/>
<path class="st0" d="M355.6,173v3.7h-0.1l-4.2-3.6c-2.2,2.2-5.2,3.4-8.3,3.3c-4.5,0-8-2.4-8-6.3c0-2.9,2-5.1,5.3-6.5
	c-1.7-1.5-2.7-3.5-2.8-5.7c0-3.3,2.7-5.9,6-5.8c0.1,0,0.1,0,0.2,0c3.2,0,6,2.2,6,5.1s-2.8,4.6-5.1,5.3l-0.4-0.3
	c2-0.7,3.3-2.6,3.3-4.8c0-2.9-1.6-4.9-4-4.9c-2.1,0-3.9,1.8-3.8,3.9c0,0.1,0,0.1,0,0.2c0,2.6,2.4,4.7,4,6.1l9,7.6
	c0.6-1.5,1-3.1,0.9-4.8c0-1.4-0.4-2.7-1.1-3.9l1.6-0.6h0.1v3.9c0,2-0.4,3.9-1.2,5.7L355.6,173z M350.9,172.8l-8.6-7.2
	c-0.6-0.5-1.2-1-1.8-1.6c-1.8,1.1-2.9,3.1-2.8,5.2c-0.2,3.3,2.4,6.1,5.7,6.3c0.2,0,0.4,0,0.6,0C346.6,175.6,349,174.6,350.9,172.8"
	/>
<path class="st0" d="M378.3,164.5c0-7.5,5.1-12.3,11.9-12.3c3.3,0,6.5,1.3,8.8,3.8l-1.6,1.4c-1.6-2.7-4.2-4.7-7.4-4.7
	c-4.9,0-8.2,4.7-8.2,11c0,7.1,3.9,11.3,9.1,11.3c3.3,0,6.3-1.6,8-4.4l0.4,0.2c-2,3.5-5.8,5.7-9.8,5.6
	C383.2,176.4,378.4,171.7,378.3,164.5"/>
<path class="st0" d="M419.6,168.3h-9.2c-1,2.5-1.7,5.1-1.9,7.7h-2.2c1.5-3.2,2.8-6.2,4.5-10.3l5.6-13.7h0.1l9.8,24h-3.6L419.6,168.3
	z M419.4,167.7l-4.4-10.8l-3.6,9l-0.7,1.8L419.4,167.7z"/>
<path class="st0" d="M439,153.1v10.8h1.2c3.5,0,5.8-0.2,6.8-0.6h0.1v2H447c-2.2-0.6-4.5-0.9-6.8-0.8H439V176h-3.3v-23.5h13l0.4,2
	h-0.1c-2.8-1-5.8-1.4-8.8-1.4L439,153.1z"/>
<path class="st0" d="M473.4,173.8l-0.6,2.2h-13.9v-23.5h13.5l0.4,2h-0.1c-2.8-1-5.8-1.4-8.8-1.4h-1.8v10.4h1.5
	c3.5,0,5.8-0.2,6.8-0.6h0.1v2h-0.1c-2.2-0.6-4.5-0.9-6.8-0.8h-1.5v11.4h1.9C467.2,175.4,470.3,174.9,473.4,173.8L473.4,173.8z
	 M465.2,150.3l-0.2-0.2l2.3-5.3h3.8L465.2,150.3z"/>
</svg>
